<svg id="Layer_1" data-name="Layer 1" xmlns="http://www.w3.org/2000/svg" viewBox="0 0 612 612"><defs><style>.cls-1{fill:#20221d;}</style></defs><path class="cls-1" d="M139.69,455l.15,6.52A14.87,14.87,0,0,1,145.4,456a15.22,15.22,0,0,1,7.41-1.81q9.49,0,12.05,7.78a15.12,15.12,0,0,1,5.74-5.76,15.92,15.92,0,0,1,7.94-2q12.9,0,13.16,14.08v26.77h-4.45V468.63q0-5.37-2.32-8t-7.43-2.6a11.83,11.83,0,0,0-8.08,3.1,11,11,0,0,0-3.67,7.36v26.54H161.3V468.29q0-5.15-2.43-7.69t-7.36-2.54a11.21,11.21,0,0,0-7.19,2.39,14.1,14.1,0,0,0-4.45,7.1v27.51h-4.44V455Z"/><path class="cls-1" d="M207,455l.15,6.52a14.87,14.87,0,0,1,5.56-5.45,15.22,15.22,0,0,1,7.41-1.81q9.49,0,12,7.78a15.08,15.08,0,0,1,5.75-5.76,15.86,15.86,0,0,1,7.93-2q12.9,0,13.16,14.08v26.77h-4.45V468.63q0-5.37-2.32-8c-1.52-1.73-4-2.6-7.43-2.6a11.83,11.83,0,0,0-8.08,3.1,11,11,0,0,0-3.67,7.36v26.54h-4.45V468.29q0-5.15-2.43-7.69t-7.36-2.54a11.21,11.21,0,0,0-7.19,2.39,14.1,14.1,0,0,0-4.45,7.1v27.51h-4.44V455Z"/><path class="cls-1" d="M288.74,458.73a16.76,16.76,0,0,0-3-.26,10.83,10.83,0,0,0-7,2.32,12.68,12.68,0,0,0-4.1,6.73v27.54h-4.41V455h4.34l.07,6.38q3.53-7.12,11.31-7.12a7.36,7.36,0,0,1,2.93.48Z"/><path class="cls-1" d="M292.56,474.41A23.71,23.71,0,0,1,294.8,464a16.9,16.9,0,0,1,15.63-9.78,16.47,16.47,0,0,1,13,5.62q5,5.61,5,14.88v.92a23.83,23.83,0,0,1-2.24,10.47,16.73,16.73,0,0,1-6.32,7.18,17.34,17.34,0,0,1-9.31,2.52,16.49,16.49,0,0,1-12.95-5.62q-5-5.61-5-14.88Zm4.45,1.22q0,7.2,3.72,11.81a12.6,12.6,0,0,0,19.5,0q3.74-4.6,3.73-12.18v-.85a20.33,20.33,0,0,0-1.71-8.41,13.68,13.68,0,0,0-4.78-5.92,12.26,12.26,0,0,0-7-2.09,11.87,11.87,0,0,0-9.68,4.65c-2.49,3.11-3.74,7.16-3.74,12.18Z"/><path class="cls-1" d="M369.81,475.41q0,9.38-4.15,14.89a13.28,13.28,0,0,1-11.16,5.5q-8.37,0-12.67-6.23l-.19,5.49h-4.15V438.12h4.41v22.65q4.23-6.56,12.53-6.56a13.38,13.38,0,0,1,11.25,5.43q4.13,5.43,4.13,15.1Zm-4.44-.78q0-7.92-3.08-12.25a10,10,0,0,0-8.67-4.32,12.16,12.16,0,0,0-7.23,2.1,12.72,12.72,0,0,0-4.49,6.13v18.09q3.35,7.56,11.79,7.56a10,10,0,0,0,8.58-4.33Q365.36,483.28,365.37,474.63Z"/><path class="cls-1" d="M395.13,495.8a17.37,17.37,0,0,1-9.24-2.52,17.12,17.12,0,0,1-6.44-7,21.89,21.89,0,0,1-2.3-10.1v-1.59a23.68,23.68,0,0,1,2.24-10.42,17.88,17.88,0,0,1,6.25-7.28,15.39,15.39,0,0,1,8.68-2.65q7.31,0,11.58,5t4.28,13.63v2.48H381.57v.85a16.8,16.8,0,0,0,3.9,11.36,12.45,12.45,0,0,0,9.85,4.55,14.53,14.53,0,0,0,6.28-1.3,14,14,0,0,0,4.95-4.15l2.78,2.11Q404.44,495.8,395.13,495.8ZM394.32,458a11.06,11.06,0,0,0-8.43,3.67,17,17,0,0,0-4.18,9.86h24.06V471a14.68,14.68,0,0,0-3.3-9.42A10.21,10.21,0,0,0,394.32,458Z"/><path class="cls-1" d="M437.35,458.73a16.76,16.76,0,0,0-3-.26,10.83,10.83,0,0,0-7,2.32,12.68,12.68,0,0,0-4.1,6.73v27.54h-4.41V455h4.34l.07,6.38q3.52-7.12,11.31-7.12a7.36,7.36,0,0,1,2.93.48Z"/><path class="cls-1" d="M453.11,444.68V455h8.3v3.63h-8.3v26.76a8.39,8.39,0,0,0,1.2,5,4.67,4.67,0,0,0,4,1.63,26.93,26.93,0,0,0,3.59-.37l.19,3.6a14.41,14.41,0,0,1-4.75.63q-4.56,0-6.63-2.65t-2.08-7.8V458.58h-7.38V455h7.38V444.68Z"/><path class="cls-1" d="M494.63,484.86a6.34,6.34,0,0,0-2.66-5.3,20.51,20.51,0,0,0-8-3.13,36.31,36.31,0,0,1-8.29-2.59,11.07,11.07,0,0,1-4.37-3.58,8.94,8.94,0,0,1-1.43-5.12,9.51,9.51,0,0,1,4-7.83,16,16,0,0,1,10.15-3.1q6.72,0,10.77,3.32a10.62,10.62,0,0,1,4.06,8.65H494.4a7.2,7.2,0,0,0-2.94-5.86,13.34,13.34,0,0,0-14.46-.39,6,6,0,0,0-2.65,5.07,5.47,5.47,0,0,0,2.2,4.65c1.47,1.1,4.15,2.1,8.05,3a37.55,37.55,0,0,1,8.75,2.93,11.34,11.34,0,0,1,4.32,3.74A10.32,10.32,0,0,1,495,492.76q-4.1,3-10.7,3-7,0-11.36-3.39a10.44,10.44,0,0,1-4.35-8.58H473a7.7,7.7,0,0,0,3.28,6.06,13.35,13.35,0,0,0,8,2.17,12.6,12.6,0,0,0,7.49-2A6.12,6.12,0,0,0,494.63,484.86Z"/><path d="M495,171.26a56.88,56.88,0,1,1-56.87-56.87A56.87,56.87,0,0,1,495,171.26"/><polygon points="392.21 411.6 395.88 228.14 494.95 411.6 392.21 411.6"/><polygon points="238.1 363.9 186.73 242.81 135.36 411.6 377.53 411.6 373.87 242.81 344.51 356.56 282.13 231.81 238.1 363.9"/><polygon points="139.04 114.75 142.7 283.18 186.73 169.43 238.1 294.19 278.46 162.09 333.5 283.18 381.1 114.75 139.04 114.75"/></svg>