<?xml version="1.0" encoding="utf-8"?>
<!-- Generator: Adobe Illustrator 25.0.1, SVG Export Plug-In . SVG Version: 6.00 Build 0)  -->
<svg version="1.1" id="Layer_1" xmlns="http://www.w3.org/2000/svg" xmlns:xlink="http://www.w3.org/1999/xlink" x="0px" y="0px"
	 viewBox="0 0 144 144" style="enable-background:new 0 0 144 144;" xml:space="preserve">
<path d="M133.5,0H10.8C4.9,0,0.2,4.7,0.2,10.6v122.7c0,5.9,4.8,10.6,10.6,10.6h122.7c5.9,0,10.6-4.8,10.6-10.6V10.6
	C144.2,4.7,139.4,0,133.5,0z M43.1,122.6H21.4V53.9h21.6V122.6z M32.3,44.3c-6.9,0-12.5-5.2-12.5-12.4s5.6-12.4,12.5-12.4
	s12.5,5.3,12.5,12.4S39.1,44.3,32.3,44.3z M122.9,122.7h-21.6V85.1c0-11.1-4.7-14.5-10.8-14.5c-6.4,0-12.7,4.8-12.7,14.8v37.3H56.1
	V53.9h20.8v9.5h0.3C79.3,59.2,86.6,52,97.8,52c12.1,0,25.1,7.2,25.1,28.2V122.7z"/>
</svg>
