<?xml version="1.0" encoding="utf-8"?>
<!-- Generator: Adobe Illustrator 25.0.1, SVG Export Plug-In . SVG Version: 6.00 Build 0)  -->
<svg version="1.1" id="Layer_1" xmlns="http://www.w3.org/2000/svg" xmlns:xlink="http://www.w3.org/1999/xlink" x="0px" y="0px"
	 viewBox="0 0 612 504" style="enable-background:new 0 0 612 504;" xml:space="preserve">
<style type="text/css">
	.st0{fill:#FFFFFF;}
</style>
<path class="st0" d="M610.7,96.5c0,53.2-43.2,96.3-96.3,96.3S418,149.7,418,96.5s43.2-96.3,96.3-96.3l0,0
	C567.5,0.2,610.7,43.3,610.7,96.5"/>
<polygon class="st0" points="436.6,503.8 442.9,193 610.7,503.8 "/>
<polygon class="st0" points="175.4,423 88.3,217.8 1.3,503.8 411.7,503.8 405.5,217.8 355.7,410.7 250.1,199.2 "/>
<polygon class="st0" points="7.5,0.8 13.7,286.3 88.3,93.5 175.4,304.8 243.9,81 337.1,286.3 417.7,0.8 "/>
</svg>
